<svg width="64" height="64" viewBox="0 0 64 64" fill="none" xmlns="http://www.w3.org/2000/svg" role="img" aria-label="AutoPIL">
  <defs>
    <radialGradient id="fav-face" cx="38%" cy="28%" r="68%">
      <stop offset="0%" stop-color="rgba(0,220,240,0.34)"/>
      <stop offset="55%" stop-color="rgba(0,204,221,0.12)"/>
      <stop offset="100%" stop-color="rgba(0,60,80,0.18)"/>
    </radialGradient>
    <filter id="fav-glow" x="-50%" y="-50%" width="200%" height="200%">
      <feGaussianBlur in="SourceGraphic" stdDeviation="1.4" result="b"/>
      <feMerge><feMergeNode in="b"/><feMergeNode in="SourceGraphic"/></feMerge>
    </filter>
  </defs>
  <rect width="64" height="64" rx="15" fill="#0a1622"/>
  <g transform="translate(11 9) scale(0.85)">
    <path d="M24 4L42 12.5V26C42 38 33 46 24 50C15 46 6 38 6 26V12.5L24 4Z" fill="rgba(0,45,65,0.65)"/>
    <path d="M22 2L40 10.5V24C40 36 31 44 22 48C13 44 4 36 4 24V10.5L22 2Z" fill="url(#fav-face)" stroke="#00ccdd" stroke-width="1.6" stroke-linejoin="round"/>
    <path d="M22 2.5L39.5 10.8V17.5C33.5 14.5 27.5 13 22 12.5C16.5 13 10.5 14.5 4.5 17.5V10.8L22 2.5Z" fill="rgba(120,240,252,0.14)"/>
    <line x1="13" y1="18" x2="31" y2="18" stroke="#00ccdd" stroke-width="2" stroke-linecap="round"/>
    <line x1="16.5" y1="25.5" x2="27.5" y2="25.5" stroke="#00ccdd" stroke-width="2" stroke-linecap="round"/>
    <circle cx="22" cy="35" r="2.9" fill="#00ccdd" filter="url(#fav-glow)"/>
    <circle cx="21.2" cy="34.2" r="0.9" fill="rgba(210,255,255,0.9)"/>
  </g>
</svg>
